<?xml version="1.0" standalone="no"?>
<!DOCTYPE svg PUBLIC "-//W3C//DTD SVG 20010904//EN"
 "http://www.w3.org/TR/2001/REC-SVG-20010904/DTD/svg10.dtd">
<svg version="1.0" xmlns="http://www.w3.org/2000/svg"
 width="300.000000pt" height="98.000000pt" viewBox="0 0 300.000000 98.000000"
 preserveAspectRatio="xMidYMid meet">

<g transform="translate(0.000000,98.000000) scale(0.100000,-0.100000)" stroke="none" fill="#0048e5">
<path d="M163 893 c-13 -2 -32 -16 -43 -30 -19 -25 -20 -40 -20 -374 l0 -348
24 -28 24 -28 254 -3 c166 -2 266 0 290 8 67 19 68 26 68 400 0 366 -2 378
-61 399 -31 11 -485 14 -536 4z m434 -194 c-3 -34 -9 -65 -14 -70 -4 -4 -35
-1 -67 7 -32 8 -60 14 -62 12 -1 -2 -7 -23 -13 -47 l-9 -43 55 7 c31 4 62 9
70 12 10 4 13 -8 13 -53 0 -84 -4 -87 -80 -64 -35 11 -66 17 -69 14 -3 -3 -7
-39 -10 -81 -3 -71 -2 -76 15 -69 18 7 155 46 161 46 2 0 3 -31 3 -70 l0 -69
-67 5 c-196 14 -193 14 -204 42 -25 65 -60 246 -66 344 -5 92 -4 108 10 114
21 8 174 21 266 23 l74 1 -6 -61z"/>
<path d="M1500 685 c0 -41 -2 -75 -5 -75 -4 0 -20 7 -37 16 -35 18 -87 14
-125 -11 -67 -44 -86 -156 -36 -216 51 -60 132 -75 203 -39 65 33 74 62 78
243 l4 157 -41 0 -41 0 0 -75z m-26 -138 c22 -16 26 -88 7 -111 -25 -30 -102
-26 -123 7 -14 21 -8 80 9 99 19 21 81 24 107 5z"/>
<path d="M2860 550 l0 -210 40 0 40 0 0 210 0 210 -40 0 -40 0 0 -210z"/>
<path d="M1050 618 c-71 -37 -98 -115 -66 -192 27 -65 116 -100 210 -82 33 6
36 10 36 41 l0 35 -66 0 c-62 0 -104 11 -104 29 0 4 28 7 63 7 44 0 70 5 89
17 62 42 51 122 -21 150 -56 23 -88 21 -141 -5z m117 -74 c9 -23 -16 -36 -60
-30 -49 6 -57 14 -33 32 27 19 85 18 93 -2z"/>
<path d="M1613 540 c4 -77 10 -107 26 -134 40 -64 130 -85 201 -45 59 33 70
62 70 178 l0 101 -40 0 -40 0 0 -93 c0 -111 -10 -131 -65 -131 -55 0 -65 20
-65 131 l0 93 -46 0 -47 0 6 -100z"/>
<path d="M2270 618 c-71 -36 -80 -64 -80 -245 l0 -153 40 0 40 0 0 75 c0 41 2
75 5 75 3 0 17 -7 31 -16 30 -20 96 -14 133 13 14 11 35 38 46 61 l21 42 19
-43 c39 -82 133 -113 193 -62 l30 25 6 -25 c6 -22 12 -25 47 -25 35 0 40 3 34
18 -4 9 -10 56 -14 103 -9 102 -30 138 -91 163 -55 22 -87 20 -140 -6 -32 -16
-51 -35 -66 -64 l-21 -41 -19 41 c-21 46 -86 86 -139 86 -17 0 -51 -10 -75
-22z m134 -80 c38 -54 5 -122 -59 -122 -64 0 -97 68 -59 122 22 32 96 32 118
0z m315 8 c23 -27 24 -80 3 -106 -42 -52 -132 -19 -132 49 0 47 26 71 74 71
25 0 48 -6 55 -14z"/>
<path d="M1980 520 l0 -30 75 0 75 0 0 30 0 30 -75 0 -75 0 0 -30z"/>
</g>
</svg>
